<?xml version="1.0" encoding="utf-8"?>
<!-- Generator: Adobe Illustrator 18.0.0, SVG Export Plug-In . SVG Version: 6.00 Build 0)  -->
<!DOCTYPE svg PUBLIC "-//W3C//DTD SVG 1.1//EN" "http://www.w3.org/Graphics/SVG/1.1/DTD/svg11.dtd">
<svg version="1.1" id="图层_1" xmlns="http://www.w3.org/2000/svg" xmlns:xlink="http://www.w3.org/1999/xlink" x="0px" y="0px"
	 viewBox="0 0 40 40" enable-background="new 0 0 40 40" xml:space="preserve">
<path fill="#D8D8D8" d="M8.1,5.4H1.9c-0.1,0-0.2-0.1-0.2-0.2v0C1.7,5.1,1.8,5,1.9,5h6.2c0.1,0,0.2,0.1,0.2,0.2v0
	C8.3,5.3,8.2,5.4,8.1,5.4z"/>
<path fill="#D8D8D8" d="M4.8,8.3V2.1C4.8,2,4.9,1.9,5,1.9h0c0.1,0,0.2,0.1,0.2,0.2v6.2c0,0.1-0.1,0.2-0.2,0.2h0
	C4.9,8.4,4.8,8.4,4.8,8.3z"/>
<path fill="#D8D8D8" d="M17.3,5.2L14,1.9c-0.1-0.1-0.1-0.2,0-0.3v0c0.1-0.1,0.2-0.1,0.3,0l3.3,3.3c0.1,0.1,0.1,0.2,0,0.3v0
	C17.5,5.2,17.4,5.2,17.3,5.2z"/>
<path fill="#D8D8D8" d="M14,8.2l3.3-3.3c0.1-0.1,0.2-0.1,0.3,0v0c0.1,0.1,0.1,0.2,0,0.3l-3.3,3.3c-0.1,0.1-0.2,0.1-0.3,0v0
	C13.9,8.4,13.9,8.2,14,8.2z"/>
<path fill="#FFFFFF" d="M24.2,7.4l-1.9-1.9c-0.1-0.1-0.1-0.2,0-0.3v0c0.1-0.1,0.2-0.1,0.3,0l1.9,1.9c0.1,0.1,0.1,0.2,0,0.3v0
	C24.4,7.4,24.3,7.4,24.2,7.4z"/>
<path fill="#FFFFFF" d="M28.4,3.4l-4,4c-0.1,0.1-0.2,0.1-0.3,0v0c-0.1-0.1-0.1-0.2,0-0.3l4-4c0.1-0.1,0.2-0.1,0.3,0v0
	C28.5,3.2,28.5,3.3,28.4,3.4z"/>
<g>
	<g>
		<path fill-rule="evenodd" clip-rule="evenodd" fill="#DDDDDD" d="M36.4,5.4c-0.3-0.2-0.6-0.3-0.9-0.4c0.8-0.4,1.3-1.2,1.3-2.1
			c0-1.3-1.1-2.4-2.4-2.4c-1.3,0-2.4,1.1-2.4,2.4c0,0.9,0.5,1.7,1.3,2.1c-1.5,0.5-2.6,1.8-2.6,3.4c0,0,0,0,0,0
			c0,0.2,0.1,0.3,0.3,0.3s0.3-0.1,0.3-0.3h0c0-1.7,1.4-3,3.1-3c0.5,0,1.1,0.2,1.5,0.4C36.1,5.7,36.2,5.5,36.4,5.4z M34.4,4.7
			c-1,0-1.8-0.8-1.8-1.8c0-1,0.8-1.8,1.8-1.8c1,0,1.8,0.8,1.8,1.8C36.2,3.9,35.4,4.7,34.4,4.7z M38.5,7H38V6.5
			c0-0.1-0.1-0.2-0.2-0.2h-0.2c-0.1,0-0.2,0.1-0.2,0.2V7h-0.5C37,7,36.9,7,36.9,7.1v0.2c0,0.1,0.1,0.2,0.2,0.2h0.5v0.5
			C37.5,8,37.6,8,37.7,8h0.2C37.9,8,38,8,38,7.9V7.4h0.5c0.1,0,0.2-0.1,0.2-0.2V7.1C38.6,7,38.5,7,38.5,7z M37.8,5.3
			c-1.1,0-1.9,0.9-1.9,1.9c0,1.1,0.9,1.9,1.9,1.9c1.1,0,1.9-0.9,1.9-1.9C39.7,6.1,38.8,5.3,37.8,5.3z M37.8,8.7
			c-0.8,0-1.5-0.7-1.5-1.5c0-0.8,0.7-1.5,1.5-1.5c0.8,0,1.5,0.7,1.5,1.5C39.2,8,38.6,8.7,37.8,8.7z"/>
	</g>
</g>
</svg>
