<?xml version="1.0" encoding="utf-8"?>
<!-- Generator: Adobe Illustrator 18.0.0, SVG Export Plug-In . SVG Version: 6.00 Build 0)  -->
<!DOCTYPE svg PUBLIC "-//W3C//DTD SVG 1.1//EN" "http://www.w3.org/Graphics/SVG/1.1/DTD/svg11.dtd">
<svg version="1.1" id="图层_1" xmlns="http://www.w3.org/2000/svg" xmlns:xlink="http://www.w3.org/1999/xlink" x="0px" y="0px"
	 viewBox="0 0 40 40" enable-background="new 0 0 40 40" xml:space="preserve">
<g>
	<g>
		<path fill-rule="evenodd" clip-rule="evenodd" fill="#FFFFFF" d="M34.1,3.6c-1.2-0.7-2.8-0.3-3.5,0.9c0,0,0,0,0,0
			c0,0-0.1,0.1-0.1,0.1c-0.1,0.2,0,0.4,0.1,0.5c0,0,0,0,0.1,0c0,0,0,0,0,0L31,5.3c0.1,0,0.1,0.1,0.1,0.1c0.1,0,0.2,0,0.2,0.1
			l0.9,0.5l-4.8,8.4l-0.9-0.5c-0.3-0.2-0.5-0.6-0.3-1l3.8-6.6l0,0c0.1-0.1,0-0.3-0.1-0.4c-0.1-0.1-0.3,0-0.4,0.1l-4.1,7.1
			c-0.1,0.2-0.1,0.5,0,0.7l0.6,3c0.1,0.3,0.4,0.5,0.7,0.4l2.7-1.1l0,0c0.2,0,0.4-0.1,0.6-0.3l4.7-8.1c0-0.1,0-0.1,0.1-0.2
			C34.9,7.4,35,7.3,35,7.2C35.8,5.9,35.3,4.3,34.1,3.6z M27.2,16.4c-0.3,0.1-0.7,0-0.7-0.4l-0.3-1.6l2.5,1.4L27.2,16.4z M33.9,7.9
			L29.9,15c-0.2,0.3-0.6,0.5-1,0.3L28,14.7l4.8-8.4l0.9,0.5C34,7.1,34.1,7.5,33.9,7.9z M34.6,6.8c0,0-0.1-0.1-0.1-0.1l-3.3-1.9
			c0,0,0,0-0.1,0c0,0,0-0.1,0-0.1c0.6-0.8,1.8-1.1,2.7-0.6C34.7,4.6,35.1,5.8,34.6,6.8z"/>
	</g>
</g>
<g>
	<g>
		<path fill-rule="evenodd" clip-rule="evenodd" fill="#FFFFFF" d="M9.8,3.3c-3.8,0-6.9,3.1-6.9,6.9c0,1.4,0.4,2.7,1.1,3.7
			c0,0,0,0,0,0C4,14,4.1,14,4.2,14c0.2,0,0.3-0.1,0.3-0.3c0-0.1,0-0.1-0.1-0.2c0,0,0,0,0,0c-0.6-1-1-2.1-1-3.4
			c0-3.5,2.8-6.3,6.3-6.3s6.3,2.8,6.3,6.3s-2.8,6.3-6.3,6.3C8.3,16.5,7,16,6,15.2c0,0,0,0,0,0c0-0.1-0.1-0.2-0.2-0.2
			c-0.2,0-0.3,0.1-0.3,0.3c0,0.1,0.1,0.2,0.2,0.3c0,0,0,0,0,0c1.2,0.9,2.6,1.4,4.2,1.4c3.8,0,6.9-3.1,6.9-6.9
			C16.7,6.4,13.6,3.3,9.8,3.3z M9.7,6.6c-0.2,0-0.3,0.1-0.3,0.3v3.2H6.2c-0.2,0-0.3,0.1-0.3,0.3s0.1,0.3,0.3,0.3h3.2v3.2
			c0,0.2,0.1,0.3,0.3,0.3S10,14,10,13.9v-3.2h3.2c0.2,0,0.3-0.1,0.3-0.3s-0.1-0.3-0.3-0.3H10V6.8C10,6.7,9.9,6.6,9.7,6.6z"/>
	</g>
</g>
</svg>
