<?xml version="1.0" standalone="no"?>
<!DOCTYPE svg PUBLIC "-//W3C//DTD SVG 1.1//EN" "http://www.w3.org/Graphics/SVG/1.1/DTD/svg11.dtd" >
<svg xmlns="http://www.w3.org/2000/svg">
<metadata>Generated by IcoMoon</metadata>
<defs>
<font id="icomoon" horiz-adv-x="1024">
<font-face units-per-em="1024" ascent="960" descent="-64" />
<missing-glyph horiz-adv-x="1024" />
<glyph unicode="&#x20;" horiz-adv-x="512" d="" />
<glyph unicode="&#xe900;" glyph-name="时光树-01" d="M957.44-12.8c0 194.56-128 358.4-302.080 419.84 87.040 51.2 143.36 148.48 143.36 250.88 0 168.96-133.12 302.080-296.96 302.080s-296.96-133.12-296.96-296.96c0-107.52 61.44-204.8 148.48-256-168.96-61.44-286.72-225.28-286.72-414.72 0-5.12 0-15.36 0-20.48v0c0-20.48 15.36-35.84 35.84-35.84s35.84 15.36 35.84 35.84c0 0 0 0 0 0 0 5.12 0 10.24 0 15.36 0 209.92 168.96 378.88 378.88 378.88s378.88-168.96 378.88-378.88c0-5.12 0-15.36 0-20.48v0c0-20.48 15.36-35.84 35.84-35.84s35.84 15.36 35.84 35.84c0 0 0 5.12 0 5.12-10.24 5.12-10.24 10.24-10.24 15.36zM501.76 432.64c-128 0-230.4 102.4-230.4 225.28s102.4 225.28 230.4 225.28 230.4-102.4 230.4-225.28-102.4-225.28-230.4-225.28z" />
<glyph unicode="&#xe901;" glyph-name="时光树-02" d="M901.12 719.36h-117.76c-5.12 0-10.24 5.12-15.36 10.24l-30.72 92.16c-5.12 25.6-35.84 46.080-61.44 46.080h-327.68c-25.6 0-51.2-20.48-61.44-46.080l-30.72-92.16c0-5.12-10.24-10.24-15.36-10.24h-117.76c-66.56 0-122.88-56.32-122.88-122.88v-440.32c0-66.56 56.32-122.88 122.88-122.88h778.24c66.56 0 122.88 56.32 122.88 122.88v440.32c0 66.56-56.32 122.88-122.88 122.88zM977.92 151.040c0-40.96-30.72-71.68-71.68-71.68h-783.36c-40.96 0-71.68 30.72-71.68 71.68v445.44c0 40.96 30.72 71.68 71.68 71.68v0h117.76c25.6 0 51.2 20.48 61.44 46.080l30.72 92.16c0 5.12 10.24 10.24 15.36 10.24h332.8c5.12 0 10.24-5.12 15.36-10.24l30.72-92.16c5.12-25.6 35.84-46.080 61.44-46.080h117.76c40.96 0 71.68-30.72 71.68-71.68v-445.44zM512 668.16c-148.48 0-266.24-117.76-266.24-271.36 0-148.48 122.88-271.36 271.36-271.36s266.24 122.88 266.24 271.36c0 153.6-122.88 271.36-271.36 271.36zM512 176.64c-122.88 0-220.16 97.28-220.16 220.16s97.28 220.16 220.16 220.16 220.16-97.28 220.16-220.16c0-117.76-97.28-220.16-220.16-220.16zM870.4 632.32c-40.96 0-71.68-30.72-71.68-71.68s30.72-71.68 71.68-71.68 71.68 30.72 71.68 71.68-35.84 71.68-71.68 71.68zM870.4 524.8c-20.48 0-35.84 15.36-35.84 35.84s15.36 35.84 35.84 35.84 35.84-15.36 35.84-35.84-15.36-35.84-35.84-35.84z" />
<glyph unicode="&#xe902;" glyph-name="时光树-03" d="M614.4 448l384 384c30.72 30.72 30.72 76.8 0 102.4-30.72 30.72-76.8 30.72-102.4 0l-384-384-384 389.12c-30.72 30.72-76.8 30.72-102.4 0-30.72-30.72-30.72-76.8 0-102.4l384-389.12-384-384c-30.72-30.72-30.72-76.8 0-102.4 30.72-30.72 76.8-30.72 102.4 0l384 384 384-384c30.72-30.72 76.8-30.72 102.4 0s30.72 76.8 0 102.4l-384 384z" />
<glyph unicode="&#xe903;" glyph-name="时光树-04" d="M440.32 867.84v0c-15.36 5.12-30.72 5.12-40.96-5.12l-250.88-250.88h-112.64c-20.48 0-35.84-15.36-35.84-35.84v-261.12c0-20.48 15.36-35.84 35.84-35.84h117.76l250.88-250.88c10.24-10.24 25.6-15.36 40.96-5.12 5.12 10.24 15.36 20.48 15.36 35.84v778.24c0 15.36-10.24 25.6-20.48 30.72zM389.12 140.8l-199.68 199.68c-5.12 5.12-15.36 10.24-25.6 10.24h-92.16v189.44h97.28c10.24 0 20.48 5.12 25.6 10.24l199.68 199.68v-609.28zM604.16 576c-10.24 0-20.48-5.12-25.6-10.24-15.36-15.36-15.36-35.84 0-51.2 35.84-35.84 35.84-97.28 0-133.12-5.12-5.12-10.24-15.36-10.24-25.6s5.12-20.48 10.24-25.6c15.36-15.36 35.84-15.36 51.2 0 30.72 30.72 46.080 71.68 46.080 117.76s-15.36 87.040-46.080 117.76c-5.12 5.12-15.36 10.24-25.6 10.24zM752.64 688.64c-5.12 5.12-15.36 10.24-25.6 10.24s-20.48-5.12-25.6-10.24c-5.12-5.12-10.24-15.36-10.24-25.6s5.12-20.48 10.24-25.6c51.2-51.2 76.8-117.76 76.8-189.44s-25.6-138.24-76.8-189.44c-5.12-5.12-10.24-15.36-10.24-25.6s5.12-20.48 10.24-25.6c15.36-15.36 35.84-15.36 51.2 0 66.56 61.44 97.28 148.48 97.28 240.64s-35.84 174.080-97.28 240.64zM875.52 811.52c-5.12 5.12-15.36 10.24-25.6 10.24s-20.48-5.12-25.6-10.24c-5.12-5.12-10.24-15.36-10.24-25.6s5.12-20.48 10.24-25.6c174.080-174.080 174.080-450.56 0-624.64-5.12-5.12-10.24-15.36-10.24-25.6s5.12-20.48 10.24-25.6c15.36-15.36 35.84-15.36 51.2 0 199.68 199.68 199.68 527.36 0 727.040z" />
<glyph unicode="&#xe904;" glyph-name="时光树-05" d="M240.64 622.080c-10.24 0-25.6-5.12-35.84-15.36-20.48-20.48-20.48-51.2 0-66.56 51.2-51.2 51.2-133.12 0-184.32-10.24-10.24-15.36-20.48-15.36-35.84s5.12-25.6 15.36-35.84c20.48-20.48 51.2-20.48 71.68 0 46.080 40.96 66.56 102.4 66.56 158.72 0 61.44-25.6 117.76-66.56 158.72-10.24 15.36-20.48 20.48-35.84 20.48zM450.56 775.68c-10.24 10.24-25.6 15.36-35.84 15.36s-25.6-5.12-35.84-15.36c-10.24-5.12-15.36-20.48-15.36-30.72 0-15.36 5.12-25.6 15.36-35.84 71.68-71.68 112.64-163.84 112.64-261.12s-40.96-189.44-112.64-261.12c-10.24-10.24-15.36-20.48-15.36-35.84s5.12-25.6 15.36-35.84c20.48-20.48 51.2-20.48 71.68 0 92.16 87.040 138.24 204.8 138.24 327.68 0 128-51.2 245.76-138.24 332.8zM619.52 944.64c-5.12 10.24-20.48 15.36-30.72 15.36-15.36 0-25.6-5.12-35.84-15.36s-15.36-20.48-15.36-35.84c0-15.36 5.12-25.6 15.36-35.84 240.64-235.52 240.64-624.64 0-860.16-10.24-10.24-15.36-20.48-15.36-35.84s5.12-25.6 15.36-35.84c20.48-20.48 51.2-20.48 71.68 0 276.48 281.6 276.48 732.16-5.12 1003.52z" />
<glyph unicode="&#xe905;" glyph-name="时光树-06" d="M783.36 494.080l-445.44 445.44c-25.6 25.6-71.68 25.6-97.28 0s-25.6-71.68 0-97.28l394.24-394.24-394.24-394.24c-25.6-25.6-25.6-71.68 0-97.28s71.68-25.6 97.28 0l445.44 445.44c25.6 25.6 25.6 66.56 0 92.16z" />
<glyph unicode="&#xe906;" glyph-name="时光树-15" d="M1008.64 453.12c-87.040 143.36-245.76 312.32-471.040 327.68-5.12 0-5.12 0-10.24 0-307.2 15.36-460.8-225.28-517.12-332.8 0 0-20.48-56.32 0-117.76 0-5.12 0-5.12 0-10.24s5.12-5.12 5.12-10.24c25.6-61.44 97.28-168.96 215.040-240.64 76.8-46.080 163.84-81.92 276.48-81.92 5.12 0 15.36 0 20.48 0 0 0 0 0 0 0s5.12 0 5.12 0c225.28 15.36 378.88 189.44 471.040 327.68 0 5.12 5.12 5.12 5.12 10.24 30.72 71.68 0 122.88 0 128zM512 171.52c-117.76 0-209.92 97.28-209.92 209.92s92.16 215.040 209.92 215.040 209.92-97.28 209.92-209.92-92.16-215.040-209.92-215.040z" />
<glyph unicode="&#xe907;" glyph-name="时光树-14" d="M512-69.12c-25.6 30.72-51.2 66.56-81.92 97.28-15.36 20.48-30.72 40.96-46.080 61.44-5.12 5.12-5.12 5.12-10.24 5.12-81.92 0-158.72 0-240.64 0-20.48 0-46.080 5.12-66.56 15.36-40.96 20.48-66.56 56.32-66.56 107.52 0 10.24 0 15.36 0 25.6 0 163.84 0 327.68 0 491.52 0 20.48 5.12 46.080 15.36 66.56 20.48 35.84 51.2 61.44 92.16 66.56 10.24 0 15.36 0 25.6 0 250.88 0 506.88 0 757.76 0 51.2 0 87.040-20.48 117.76-66.56 10.24-25.6 15.36-46.080 15.36-66.56 0-168.96 0-343.040 0-512 0-61.44-40.96-112.64-102.4-128-10.24 0-20.48-5.12-30.72-5.12-81.92 0-158.72 0-240.64 0-5.12 0-10.24 0-15.36-5.12-40.96-51.2-81.92-102.4-122.88-148.48 5.12 0 0 0 0-5.12zM512 412.16c35.84 0 66.56 30.72 66.56 61.44 0 35.84-30.72 66.56-61.44 66.56-35.84 0-66.56-30.72-66.56-61.44-5.12-35.84 25.6-66.56 61.44-66.56zM158.72 478.72c0-35.84 30.72-66.56 66.56-66.56s66.56 30.72 66.56 66.56c0 35.84-30.72 66.56-66.56 66.56-35.84-5.12-66.56-30.72-66.56-66.56zM798.72 412.16c35.84 0 66.56 30.72 66.56 61.44s-30.72 66.56-61.44 66.56c-35.84 0-66.56-30.72-66.56-61.44 0-35.84 25.6-66.56 61.44-66.56z" />
<glyph unicode="&#xe908;" glyph-name="时光树-13" d="M839.68-64h-414.72c0 0 0 0-5.12 0-20.48 0-40.96 10.24-61.44 20.48-20.48 15.36-35.84 30.72-35.84 61.44 0 174.080 0 353.28 0 527.36 0 5.12 0 5.12 5.12 10.24 61.44 46.080 107.52 97.28 148.48 158.72 25.6 40.96 46.080 81.92 51.2 128 5.12 25.6 5.12 46.080 5.12 71.68 0 20.48 10.24 35.84 30.72 40.96 10.24 5.12 15.36 5.12 25.6 5.12h10.24c0 0 0 0 0 0 20.48-5.12 40.96-20.48 56.32-35.84 20.48-25.6 30.72-56.32 40.96-87.040 10.24-40.96 5.12-81.92 5.12-122.88-5.12-46.080-15.36-92.16-25.6-138.24 0-5.12-5.12-10.24-5.12-20.48h5.12c87.040 0 174.080 0 261.12 0 5.12 0 5.12 0 10.24 0 35.84-5.12 56.32-25.6 56.32-61.44 0-20.48 0-35.84-5.12-56.32-10.24-46.080-15.36-97.28-25.6-143.36-15.36-76.8-40.96-158.72-61.44-235.52-10.24-30.72-20.48-61.44-35.84-87.040-5.12-15.36-15.36-30.72-35.84-35.84zM81.92-64c-5.12 0-10.24 5.12-15.36 5.12-10.24 5.12-15.36 15.36-15.36 20.48 0 25.6-5.12 51.2-5.12 76.8 0 35.84-5.12 71.68-5.12 107.52s-5.12 66.56-5.12 102.4c0 35.84-5.12 71.68-5.12 107.52s-5.12 66.56-5.12 102.4c0 20.48 0 35.84-5.12 56.32 0 15.36 5.12 35.84 30.72 35.84 56.32 0 107.52 0 163.84 0 25.6 0 40.96-20.48 40.96-46.080 0 0 0-5.12 0-5.12 0-179.2 0-358.4 0-537.6 0-15.36-5.12-25.6-20.48-25.6 0 0 0 0 0 0h-153.6z" />
<glyph unicode="&#xe909;" glyph-name="时光树-12" d="M875.52 84.48v0c0 0 0 0 0 0s0 0 0 0zM148.48 811.52c0 0 0 0 0 0s0 0 0 0v0zM875.52 151.040l-296.96 296.96 296.96 296.96c15.36 15.36 20.48 46.080 0 66.56-20.48 15.36-46.080 15.36-66.56 0l-296.96-296.96-296.96 296.96c-15.36 15.36-46.080 20.48-66.56 0-15.36-20.48-15.36-46.080 0-66.56l296.96-296.96-296.96-296.96c-15.36-15.36-20.48-46.080 0-66.56 20.48-15.36 46.080-15.36 66.56 0l296.96 296.96 296.96-296.96c15.36-15.36 46.080-20.48 66.56 0 15.36 20.48 15.36 46.080 0 66.56zM148.48 84.48c0 0 0 0 0 0s0 0 0 0v0zM875.52 811.52c0 0 0 0 0 0s0 0 0 0v0z" />
<glyph unicode="&#xe90a;" glyph-name="时光树-11" d="M1024 448c0 0 0 0 0 0v0c0 0 0 0 0 0zM977.92 494.080h-419.84v419.84c0 25.6-20.48 46.080-46.080 46.080s-46.080-20.48-46.080-46.080v-419.84h-419.84c-25.6 0-46.080-20.48-46.080-46.080s20.48-46.080 46.080-46.080h419.84v-419.84c0-25.6 20.48-46.080 46.080-46.080s46.080 20.48 46.080 46.080v419.84h419.84c25.6 0 46.080 20.48 46.080 46.080s-20.48 46.080-46.080 46.080zM0 448c0 0 0 0 0 0s0 0 0 0v0zM512-64c0 0 0 0 0 0s0 0 0 0v0zM512 960c0 0 0 0 0 0s0 0 0 0v0z" />
<glyph unicode="&#xe90b;" glyph-name="时光树-10" d="M1003.52 273.92l-445.44 445.44c-25.6 25.6-71.68 25.6-97.28 0l-445.44-445.44c-25.6-25.6-25.6-71.68 0-97.28s71.68-25.6 97.28 0l399.36 394.24 394.24-394.24c25.6-25.6 71.68-25.6 97.28 0s25.6 71.68 0 97.28z" />
<glyph unicode="&#xe90c;" glyph-name="时光树-09" d="M1008.64 780.8c-20.48 20.48-51.2 20.48-71.68 0l-558.080-558.080-291.84 286.72c-20.48 20.48-51.2 20.48-71.68 0s-20.48-51.2 0-71.68l327.68-327.68c20.48-20.48 51.2-20.48 71.68 0l593.92 599.040c20.48 20.48 20.48 51.2 0 71.68z" />
<glyph unicode="&#xe90d;" glyph-name="时光树-08" d="M547.84 903.68l128-256c5.12-10.24 15.36-20.48 25.6-20.48l286.72-40.96c30.72-5.12 40.96-40.96 20.48-61.44l-209.92-199.68c-10.24-10.24-10.24-20.48-10.24-30.72l51.2-281.6c5.12-30.72-25.6-51.2-56.32-35.84l-261.12 133.12c-10.24 5.12-25.6 5.12-35.84 0l-261.12-133.12c-25.6-15.36-61.44 10.24-56.32 35.84l51.2 281.6c0 10.24 0 25.6-10.24 30.72l-199.68 199.68c-20.48 20.48-10.24 61.44 20.48 61.44l291.84 40.96c10.24 0 20.48 10.24 25.6 20.48l128 256c15.36 25.6 56.32 25.6 71.68 0z" />
<glyph unicode="&#xe90e;" glyph-name="时光树-07" d="M1003.52 719.36c-25.6 25.6-71.68 25.6-97.28 0l-394.24-394.24-394.24 394.24c-25.6 25.6-71.68 25.6-97.28 0s-25.6-71.68 0-97.28l445.44-445.44c25.6-25.6 71.68-25.6 97.28 0l445.44 445.44c20.48 25.6 20.48 71.68-5.12 97.28z" />
<glyph unicode="&#xe90f;" glyph-name="时光树-24" d="M952.32 468.48l-855.040 486.4c-5.12 5.12-15.36 5.12-25.6 0-5.12 0-10.24-10.24-10.24-20.48v-977.92c0-10.24 5.12-15.36 10.24-20.48 5.12 0 10.24 0 15.36 0s10.24 0 10.24 5.12l855.040 486.4c5.12 5.12 10.24 10.24 10.24 20.48s-5.12 15.36-10.24 20.48zM107.52 2.56v890.88l783.36-445.44-783.36-445.44z" />
<glyph unicode="&#xe910;" glyph-name="时光树-23" d="M926.72 448c-15.36 0-25.6-10.24-25.6-25.6v-337.92c0-35.84-30.72-61.44-61.44-61.44h-727.040c-35.84 0-61.44 30.72-61.44 61.44v732.16c0 35.84 30.72 61.44 61.44 61.44h440.32c15.36 0 25.6 10.24 25.6 25.6s-10.24 25.6-25.6 25.6h-440.32c-61.44 0-112.64-51.2-112.64-112.64v-732.16c0-61.44 51.2-112.64 112.64-112.64h727.040c61.44 0 112.64 51.2 112.64 112.64v337.92c0 10.24-10.24 25.6-25.6 25.6zM1008.64 832l-81.92 76.8c-10.24 10.24-25.6 15.36-40.96 15.36s-30.72-5.12-40.96-15.36l-471.040-471.040c-5.12-5.12-5.12-5.12-5.12-10.24l-51.2-184.32c0-10.24 0-20.48 5.12-25.6s10.24-5.12 15.36-5.12c0 0 5.12 0 5.12 0l179.2 56.32c5.12 0 5.12 5.12 10.24 5.12l471.040 471.040c25.6 25.6 25.6 66.56 5.12 87.040zM972.8 785.92l-465.92-465.92-128-40.96 35.84 133.12 465.92 465.92c0 0 5.12 5.12 5.12 5.12s5.12 0 5.12-5.12l81.92-81.92c5.12 0 5.12-10.24 0-10.24z" />
<glyph unicode="&#xe911;" glyph-name="时光树-22" d="M1024 166.4v563.2c0 66.56-51.2 117.76-117.76 117.76h-788.48c-66.56 0-117.76-56.32-117.76-117.76v-563.2c0-10.24 0-25.6 5.12-35.84 0-5.12 0-10.24 5.12-15.36 0 0 0 0 0 0 20.48-35.84 56.32-61.44 102.4-61.44h793.6c46.080 0 81.92 25.6 102.4 61.44 0 0 0 0 0 0 10.24 15.36 15.36 30.72 15.36 51.2zM117.76 806.4h793.6c40.96 0 76.8-35.84 76.8-76.8v-563.2c0 0 0-5.12 0-5.12l-184.32 204.8c-20.48 20.48-51.2 20.48-71.68 5.12l-194.56-174.080-199.68 225.28c-10.24 10.24-20.48 15.36-35.84 15.36 0 0 0 0 0 0-15.36 0-25.6-5.12-35.84-15.36l-220.16-245.76v552.96c-5.12 40.96 25.6 76.8 71.68 76.8zM906.24 89.6h-788.48c-25.6 0-51.2 15.36-66.56 35.84l240.64 271.36c0 0 5.12 0 5.12 0s0 0 0 0 5.12 0 5.12-5.12l215.040-240.64c5.12-10.24 20.48-10.24 30.72 0l209.92 184.32c5.12 5.12 10.24 5.12 15.36 0l199.68-220.16c-20.48-15.36-40.96-25.6-66.56-25.6zM599.040 427.52c66.56 0 122.88 56.32 122.88 122.88s-56.32 122.88-122.88 122.88c-66.56 0-122.88-56.32-122.88-122.88 5.12-66.56 56.32-122.88 122.88-122.88zM599.040 632.32c46.080 0 81.92-35.84 81.92-81.92s-35.84-81.92-81.92-81.92c-46.080 0-81.92 35.84-81.92 81.92 5.12 46.080 40.96 81.92 81.92 81.92z" />
<glyph unicode="&#xe912;" glyph-name="时光树-21" d="M512 227.84c128 0 230.4 102.4 230.4 230.4v271.36c0 128-102.4 230.4-230.4 230.4s-230.4-102.4-230.4-230.4v-276.48c0-122.88 102.4-225.28 230.4-225.28zM322.56 729.6c0 102.4 87.040 189.44 189.44 189.44s189.44-87.040 189.44-189.44v-276.48c0-102.4-87.040-189.44-189.44-189.44s-189.44 87.040-189.44 189.44v276.48zM532.48 64c194.56 10.24 348.16 168.96 348.16 363.52 0 10.24-10.24 20.48-20.48 20.48s-20.48-10.24-20.48-20.48c0-179.2-148.48-327.68-327.68-327.68s-327.68 148.48-327.68 327.68c0 10.24-10.24 20.48-20.48 20.48s-20.48-10.24-20.48-20.48c0-194.56 153.6-353.28 348.16-363.52v-81.92c0 0 0 0 0 0h-92.16c-10.24 0-20.48-10.24-20.48-20.48s10.24-20.48 20.48-20.48h220.16c10.24 0 20.48 10.24 20.48 20.48s-10.24 20.48-20.48 20.48h-92.16c0 0 0 0 0 0l5.12 81.92z" />
<glyph unicode="&#xe913;" glyph-name="时光树-20" d="M952.32 888.32c-46.080 46.080-102.4 71.68-163.84 71.68-56.32 0-112.64-20.48-158.72-61.44-76.8-71.68-153.6-153.6-240.64-240.64-46.080-46.080-66.56-102.4-61.44-174.080 5.12-66.56 30.72-117.76 81.92-158.72l56.32 56.32c-35.84 35.84-56.32 71.68-56.32 112.64s15.36 87.040 51.2 122.88c76.8 76.8 143.36 143.36 209.92 209.92 30.72 30.72 71.68 51.2 112.64 51.2s76.8-15.36 107.52-46.080c66.56-61.44 61.44-153.6-5.12-225.28-10.24-10.24-20.48-20.48-30.72-30.72v0c-15.36-15.36-30.72-30.72-46.080-51.2-5.12-5.12-5.12-10.24-5.12-10.24 5.12-30.72 10.24-56.32 20.48-87.040v-5.12c10.24 10.24 20.48 20.48 30.72 30.72 35.84 35.84 71.68 71.68 107.52 107.52 87.040 97.28 81.92 240.64-10.24 327.68zM609.28 570.88l-56.32-56.32c35.84-35.84 61.44-71.68 61.44-117.76 0-40.96-15.36-87.040-56.32-122.88l-25.6-25.6c-61.44-61.44-122.88-122.88-184.32-184.32-30.72-30.72-71.68-46.080-112.64-46.080s-76.8 15.36-107.52 46.080c-61.44 61.44-61.44 153.6 0 220.16 15.36 10.24 25.6 25.6 40.96 40.96v0c15.36 15.36 30.72 30.72 46.080 46.080 5.12 5.12 5.12 10.24 5.12 10.24-5.12 25.6-15.36 51.2-20.48 81.92v0c-10.24-5.12-20.48-15.36-30.72-25.6-35.84-35.84-71.68-71.68-107.52-107.52-87.040-92.16-81.92-230.4 5.12-322.56 46.080-46.080 107.52-71.68 168.96-71.68 56.32 0 112.64 20.48 158.72 61.44 71.68 66.56 143.36 143.36 235.52 235.52 56.32 56.32 76.8 128 56.32 209.92-10.24 56.32-35.84 97.28-76.8 128z" />
<glyph unicode="&#xe914;" glyph-name="时光树-19" d="M680.96 478.72c-81.92 46.080-168.96 87.040-256 133.12-30.72 15.36-51.2 0-51.2-35.84 0-40.96 0-87.040 0-128s0-87.040 0-128c0-35.84 20.48-51.2 56.32-35.84 87.040 40.96 174.080 87.040 261.12 128 10.24 5.12 20.48 20.48 20.48 30.72-5.12 15.36-20.48 30.72-30.72 35.84zM906.24 847.36h-788.48c-66.56 0-117.76-51.2-117.76-117.76v-568.32c0-61.44 51.2-117.76 117.76-117.76h793.6c61.44 0 117.76 51.2 117.76 117.76v568.32c-5.12 66.56-56.32 117.76-122.88 117.76zM972.8 166.4c0-35.84-25.6-61.44-61.44-61.44h-793.6c-35.84 0-61.44 25.6-61.44 61.44v563.2c0 35.84 25.6 61.44 61.44 61.44h793.6c35.84 0 61.44-25.6 61.44-61.44v-563.2z" />
<glyph unicode="&#xe915;" glyph-name="时光树-18" d="M906.24 847.36h-788.48c-66.56 0-117.76-51.2-117.76-117.76v-568.32c0-10.24 0-25.6 5.12-35.84 0-5.12 0-10.24 5.12-15.36 20.48-40.96 56.32-66.56 102.4-66.56h793.6c61.44 0 117.76 51.2 117.76 117.76v568.32c0 66.56-51.2 117.76-117.76 117.76zM117.76 791.040h793.6c35.84 0 61.44-25.6 61.44-61.44v-547.84l-168.96 184.32c-20.48 20.48-56.32 25.6-81.92 5.12l-184.32-163.84-189.44 215.040c-15.36 15.36-30.72 25.6-46.080 25.6 0 0 0 0 0 0-15.36 0-30.72-5.12-40.96-20.48l-204.8-230.4v532.48c-5.12 35.84 25.6 61.44 61.44 61.44zM906.24 104.96h-788.48c-20.48 0-40.96 10.24-51.2 25.6l235.52 261.12c0 0 0 0 0 0s0 0 0 0 0 0 0 0l209.92-235.52c10.24-10.24 25.6-10.24 40.96 0l204.8 184.32c0 0 0 0 0 0l194.56-209.92c-10.24-20.48-25.6-25.6-46.080-25.6zM696.32 545.28c0-53.726-43.554-97.28-97.28-97.28s-97.28 43.554-97.28 97.28c0 53.726 43.554 97.28 97.28 97.28s97.28-43.554 97.28-97.28z" />
<glyph unicode="&#xe916;" glyph-name="时光树-17" d="M911.36 816.64h-798.72c-61.44 0-112.64-51.2-112.64-112.64v-512c0-61.44 51.2-112.64 112.64-112.64h793.6c61.44 0 112.64 51.2 112.64 112.64v512c5.12 61.44-46.080 112.64-107.52 112.64zM911.36 755.2c5.12 0 10.24 0 15.36 0l-409.6-250.88-414.72 250.88c5.12 0 10.24 0 15.36 0h793.6zM962.56 192c0-30.72-25.6-56.32-56.32-56.32h-793.6c-30.72 0-56.32 25.6-56.32 56.32v512c0 0 0 5.12 0 5.12l440.32-261.12c0 0 0 0 0 0s5.12 0 5.12 0c0 0 0 0 0 0s5.12 0 5.12 0c0 0 0 0 0 0s0 0 0 0 0 0 0 0 0 0 0 0 5.12 0 5.12 0c0 0 0 0 0 0s5.12 0 5.12 0c0 0 0 0 0 0l435.2 266.24c0 0 0-5.12 0-5.12v-517.12z" />
<glyph unicode="&#xe917;" glyph-name="时光树-16" d="M363.52 509.44c0-36.76-29.8-66.56-66.56-66.56s-66.56 29.8-66.56 66.56c0 36.76 29.8 66.56 66.56 66.56s66.56-29.8 66.56-66.56zM599.040 509.44c0-36.76-29.8-66.56-66.56-66.56s-66.56 29.8-66.56 66.56c0 36.76 29.8 66.56 66.56 66.56s66.56-29.8 66.56-66.56zM829.44 509.44c0-36.76-29.8-66.56-66.56-66.56s-66.56 29.8-66.56 66.56c0 36.76 29.8 66.56 66.56 66.56s66.56-29.8 66.56-66.56zM977.92 611.84c-25.6 97.28-81.92 179.2-163.84 245.76-87.040 66.56-189.44 102.4-296.96 102.4-30.72 0-66.56-5.12-97.28-10.24-81.92-15.36-158.72-51.2-225.28-102.4-51.2-46.080-92.16-97.28-122.88-153.6-35.84-81.92-51.2-163.84-40.96-250.88 5.12-56.32 25.6-112.64 56.32-163.84s66.56-97.28 117.76-133.12l10.24-5.12v-5.12c0-35.84 0-76.8 0-112.64v-87.040c15.36 5.12 46.080 15.36 46.080 15.36l51.2 20.48c56.32 20.48 112.64 46.080 168.96 66.56v0h10.24c30.72 0 61.44 0 92.16 5.12 87.040 10.24 163.84 46.080 225.28 92.16 102.4 76.8 163.84 179.2 179.2 302.080 5.12 61.44 5.12 117.76-10.24 174.080zM931.84 453.12c-15.36-107.52-66.56-194.56-158.72-266.24-56.32-46.080-122.88-71.68-199.68-81.92-25.6-5.12-56.32-5.12-81.92-5.12h-5.12c-10.24 0-15.36 0-25.6-5.12-46.080-20.48-97.28-35.84-143.36-56.32l-46.080-20.48v15.36c0 35.84 0 76.8 0 112.64 0 15.36-5.12 25.6-15.36 35.84-46.080 35.84-87.040 76.8-112.64 122.88s-40.96 92.16-51.2 143.36c-10.24 76.8 0 148.48 35.84 220.16 25.6 51.2 61.44 97.28 107.52 133.12 56.32 51.2 122.88 81.92 194.56 92.16 30.72 5.12 56.32 10.24 87.040 10.24 97.28 0 184.32-30.72 261.12-92.16 71.68-56.32 122.88-128 143.36-215.040 15.36-46.080 15.36-97.28 10.24-143.36z" />
<glyph unicode="&#xe918;" glyph-name="时光树-25" d="M967.68 140.8c0 5.12 0 10.24 0 10.24 0 10.24 0 20.48-5.12 30.72-15.36 66.56-46.080 122.88-102.4 163.84v10.24c0 66.56 0 133.12 0 199.68 0 15.36 0 35.84-5.12 51.2-10.24 61.44-35.84 112.64-81.92 158.72-35.84 35.84-81.92 61.44-133.12 76.8 0 20.48-10.24 40.96-20.48 56.32-20.48 40.96-61.44 61.44-107.52 61.44-15.36 0-30.72 0-40.96-5.12-51.2-15.36-81.92-61.44-87.040-112.64-40.96-10.24-76.8-30.72-107.52-56.32-35.84-25.6-66.56-61.44-87.040-107.52-15.36-35.84-25.6-81.92-25.6-128s0-92.16 0-133.12v-71.68c-5.12-5.12-10.24-10.24-15.36-15.36-46.080-46.080-76.8-97.28-87.040-163.84 0-10.24 0-15.36-5.12-25.6v-10.24c0-5.12 0-15.36 5.12-20.48s10.24-10.24 20.48-10.24h860.16c15.36 0 25.6 10.24 25.6 25.6 0 10.24 0 10.24 0 15.36zM107.52 156.16c0 0 0 0 0 0 10.24 56.32 35.84 102.4 71.68 143.36 5.12 5.12 10.24 10.24 20.48 15.36s15.36 15.36 15.36 25.6v76.8c0 46.080 0 92.16 0 138.24 0 40.96 5.12 76.8 20.48 107.52s40.96 61.44 71.68 87.040c30.72 25.6 61.44 40.96 97.28 46.080 15.36 5.12 25.6 15.36 25.6 30.72 0 35.84 20.48 66.56 56.32 76.8 5.12 5.12 15.36 10.24 25.6 10.24 30.72 0 56.32-15.36 71.68-35.84 10.24-15.36 15.36-30.72 15.36-46.080s10.24-25.6 25.6-30.72c46.080-10.24 87.040-35.84 122.88-66.56 35.84-35.84 61.44-81.92 66.56-133.12 0-15.36 5.12-25.6 5.12-40.96 0-66.56 0-133.12 0-199.68v-15.36c0-10.24 5.12-20.48 15.36-30.72 46.080-35.84 76.8-81.92 87.040-138.24 0-5.12 0-10.24 5.12-15.36h-819.2zM512-64c76.8 0 133.12 61.44 138.24 122.88h-276.48c5.12-61.44 61.44-122.88 138.24-122.88z" />
</font>
</defs>
</svg>
